<svg xmlns="http://www.w3.org/2000/svg" xmlns:xlink="http://www.w3.org/1999/xlink" width="467" zoomAndPan="magnify" viewBox="0 0 350.25 97.5" height="130" preserveAspectRatio="xMidYMid meet" version="1.0"><defs><g/></defs><g fill="#ffffff" fill-opacity="1"><g transform="translate(1.837871, 82.186287)"><g><path d="M 45.15625 -69.359375 L 45.15625 -55.484375 L 20.84375 -55.484375 L 20.84375 -41.703125 L 43.296875 -41.703125 L 43.296875 -27.828125 L 20.84375 -27.828125 L 20.84375 0 L 5.046875 0 L 5.046875 -69.359375 Z M 45.15625 -69.359375 "/></g></g></g><g fill="#ffffff" fill-opacity="1"><g transform="translate(49.509596, 82.186287)"><g><path d="M 5.046875 0 L 5.046875 -43.125 L 19.921875 -43.125 L 19.921875 -36.90625 L 20.09375 -36.90625 C 20.207031 -37.132812 20.390625 -37.414062 20.640625 -37.75 C 20.890625 -38.082031 21.4375 -38.671875 22.28125 -39.515625 C 23.125 -40.359375 24.019531 -41.113281 24.96875 -41.78125 C 25.925781 -42.457031 27.160156 -43.0625 28.671875 -43.59375 C 30.179688 -44.125 31.722656 -44.390625 33.296875 -44.390625 C 34.921875 -44.390625 36.515625 -44.164062 38.078125 -43.71875 C 39.648438 -43.269531 40.800781 -42.820312 41.53125 -42.375 L 42.71875 -41.703125 L 36.484375 -29.09375 C 34.640625 -30.65625 32.0625 -31.4375 28.75 -31.4375 C 26.957031 -31.4375 25.414062 -31.046875 24.125 -30.265625 C 22.84375 -29.484375 21.929688 -28.53125 21.390625 -27.40625 C 20.859375 -26.289062 20.476562 -25.335938 20.25 -24.546875 C 20.03125 -23.765625 19.921875 -23.148438 19.921875 -22.703125 L 19.921875 0 Z M 5.046875 0 "/></g></g></g><g fill="#ffffff" fill-opacity="1"><g transform="translate(91.38, 82.186287)"><g><path d="M 48.6875 -19.5 L 17.40625 -19.5 C 17.40625 -16.476562 18.382812 -14.238281 20.34375 -12.78125 C 22.3125 -11.320312 24.441406 -10.59375 26.734375 -10.59375 C 29.148438 -10.59375 31.054688 -10.914062 32.453125 -11.5625 C 33.859375 -12.207031 35.457031 -13.484375 37.25 -15.390625 L 48.015625 -10 C 43.523438 -2.488281 36.066406 1.265625 25.640625 1.265625 C 19.140625 1.265625 13.5625 -0.960938 8.90625 -5.421875 C 4.257812 -9.878906 1.9375 -15.242188 1.9375 -21.515625 C 1.9375 -27.796875 4.257812 -33.175781 8.90625 -37.65625 C 13.5625 -42.144531 19.140625 -44.390625 25.640625 -44.390625 C 32.484375 -44.390625 38.046875 -42.410156 42.328125 -38.453125 C 46.617188 -34.503906 48.765625 -28.863281 48.765625 -21.53125 C 48.765625 -20.519531 48.738281 -19.84375 48.6875 -19.5 Z M 17.828125 -27.75 L 34.21875 -27.75 C 33.882812 -29.988281 33 -31.707031 31.5625 -32.90625 C 30.132812 -34.113281 28.300781 -34.71875 26.0625 -34.71875 C 23.59375 -34.71875 21.628906 -34.070312 20.171875 -32.78125 C 18.722656 -31.5 17.941406 -29.820312 17.828125 -27.75 Z M 17.828125 -27.75 "/></g></g></g><g fill="#ffffff" fill-opacity="1"><g transform="translate(142.078499, 82.186287)"><g><path d="M 48.6875 -19.5 L 17.40625 -19.5 C 17.40625 -16.476562 18.382812 -14.238281 20.34375 -12.78125 C 22.3125 -11.320312 24.441406 -10.59375 26.734375 -10.59375 C 29.148438 -10.59375 31.054688 -10.914062 32.453125 -11.5625 C 33.859375 -12.207031 35.457031 -13.484375 37.25 -15.390625 L 48.015625 -10 C 43.523438 -2.488281 36.066406 1.265625 25.640625 1.265625 C 19.140625 1.265625 13.5625 -0.960938 8.90625 -5.421875 C 4.257812 -9.878906 1.9375 -15.242188 1.9375 -21.515625 C 1.9375 -27.796875 4.257812 -33.175781 8.90625 -37.65625 C 13.5625 -42.144531 19.140625 -44.390625 25.640625 -44.390625 C 32.484375 -44.390625 38.046875 -42.410156 42.328125 -38.453125 C 46.617188 -34.503906 48.765625 -28.863281 48.765625 -21.53125 C 48.765625 -20.519531 48.738281 -19.84375 48.6875 -19.5 Z M 17.828125 -27.75 L 34.21875 -27.75 C 33.882812 -29.988281 33 -31.707031 31.5625 -32.90625 C 30.132812 -34.113281 28.300781 -34.71875 26.0625 -34.71875 C 23.59375 -34.71875 21.628906 -34.070312 20.171875 -32.78125 C 18.722656 -31.5 17.941406 -29.820312 17.828125 -27.75 Z M 17.828125 -27.75 "/></g></g></g><g fill="#ffffff" fill-opacity="1"><g transform="translate(192.776998, 82.186287)"><g><path d="M 23.796875 -44.390625 C 26.265625 -44.390625 28.703125 -44.109375 31.109375 -43.546875 C 33.515625 -42.992188 35.304688 -42.4375 36.484375 -41.875 L 38.25 -41.03125 L 33.375 -31.28125 C 30.007812 -33.070312 26.816406 -33.96875 23.796875 -33.96875 C 22.109375 -33.96875 20.914062 -33.785156 20.21875 -33.421875 C 19.519531 -33.054688 19.171875 -32.367188 19.171875 -31.359375 C 19.171875 -31.140625 19.195312 -30.914062 19.25 -30.6875 C 19.3125 -30.46875 19.425781 -30.257812 19.59375 -30.0625 C 19.757812 -29.863281 19.910156 -29.691406 20.046875 -29.546875 C 20.191406 -29.410156 20.429688 -29.257812 20.765625 -29.09375 C 21.097656 -28.925781 21.363281 -28.800781 21.5625 -28.71875 C 21.757812 -28.632812 22.082031 -28.503906 22.53125 -28.328125 C 22.976562 -28.160156 23.3125 -28.035156 23.53125 -27.953125 C 23.757812 -27.867188 24.140625 -27.742188 24.671875 -27.578125 C 25.203125 -27.410156 25.609375 -27.296875 25.890625 -27.234375 C 27.628906 -26.734375 29.144531 -26.175781 30.4375 -25.5625 C 31.726562 -24.945312 33.085938 -24.101562 34.515625 -23.03125 C 35.941406 -21.96875 37.046875 -20.625 37.828125 -19 C 38.617188 -17.375 39.015625 -15.523438 39.015625 -13.453125 C 39.015625 -3.640625 32.203125 1.265625 18.578125 1.265625 C 15.492188 1.265625 12.566406 0.789062 9.796875 -0.15625 C 7.023438 -1.113281 5.019531 -2.070312 3.78125 -3.03125 L 1.9375 -4.546875 L 7.984375 -14.71875 C 8.429688 -14.320312 9.019531 -13.859375 9.75 -13.328125 C 10.476562 -12.796875 11.796875 -12.066406 13.703125 -11.140625 C 15.609375 -10.210938 17.265625 -9.75 18.671875 -9.75 C 21.753906 -9.75 23.296875 -10.785156 23.296875 -12.859375 C 23.296875 -13.816406 22.898438 -14.5625 22.109375 -15.09375 C 21.328125 -15.625 19.992188 -16.222656 18.109375 -16.890625 C 16.234375 -17.566406 14.765625 -18.1875 13.703125 -18.75 C 11.015625 -20.144531 8.882812 -21.722656 7.3125 -23.484375 C 5.738281 -25.253906 4.953125 -27.597656 4.953125 -30.515625 C 4.953125 -34.890625 6.648438 -38.296875 10.046875 -40.734375 C 13.441406 -43.171875 18.023438 -44.390625 23.796875 -44.390625 Z M 23.796875 -44.390625 "/></g></g></g><g fill="#ffffff" fill-opacity="1"><g transform="translate(234.142935, 82.186287)"><g><path d="M 7.984375 -5.328125 C 3.953125 -9.734375 1.9375 -15.128906 1.9375 -21.515625 C 1.9375 -27.910156 3.953125 -33.320312 7.984375 -37.75 C 12.023438 -42.175781 17.15625 -44.390625 23.375 -44.390625 C 29.09375 -44.390625 33.800781 -42.597656 37.5 -39.015625 L 37.5 -43.125 L 52.375 -43.125 L 52.375 0 L 37.671875 0 L 37.671875 -4.875 L 37.5 -4.875 C 33.800781 -0.78125 29.09375 1.265625 23.375 1.265625 C 17.15625 1.265625 12.023438 -0.929688 7.984375 -5.328125 Z M 20.640625 -28.84375 C 18.703125 -26.9375 17.734375 -24.492188 17.734375 -21.515625 C 17.734375 -18.546875 18.660156 -16.125 20.515625 -14.25 C 22.367188 -12.375 24.804688 -11.4375 27.828125 -11.4375 C 30.742188 -11.4375 33.140625 -12.390625 35.015625 -14.296875 C 36.890625 -16.203125 37.828125 -18.613281 37.828125 -21.53125 C 37.828125 -24.5 36.859375 -26.9375 34.921875 -28.84375 C 32.992188 -30.75 30.628906 -31.703125 27.828125 -31.703125 C 24.972656 -31.703125 22.578125 -30.75 20.640625 -28.84375 Z M 20.640625 -28.84375 "/></g></g></g><g fill="#ffffff" fill-opacity="1"><g transform="translate(291.567606, 82.186287)"><g><path d="M 7.984375 -5.328125 C 3.953125 -9.734375 1.9375 -15.128906 1.9375 -21.515625 C 1.9375 -27.910156 3.953125 -33.320312 7.984375 -37.75 C 12.023438 -42.175781 17.15625 -44.390625 23.375 -44.390625 C 29.09375 -44.390625 33.800781 -42.597656 37.5 -39.015625 L 37.5 -72.3125 L 52.375 -72.3125 L 52.375 0 L 37.671875 0 L 37.671875 -4.875 L 37.5 -4.875 C 33.800781 -0.78125 29.09375 1.265625 23.375 1.265625 C 17.15625 1.265625 12.023438 -0.929688 7.984375 -5.328125 Z M 20.640625 -28.84375 C 18.703125 -26.9375 17.734375 -24.492188 17.734375 -21.515625 C 17.734375 -18.546875 18.660156 -16.125 20.515625 -14.25 C 22.367188 -12.375 24.804688 -11.4375 27.828125 -11.4375 C 30.742188 -11.4375 33.140625 -12.390625 35.015625 -14.296875 C 36.890625 -16.203125 37.828125 -18.613281 37.828125 -21.53125 C 37.828125 -24.5 36.859375 -26.9375 34.921875 -28.84375 C 32.992188 -30.75 30.628906 -31.703125 27.828125 -31.703125 C 24.972656 -31.703125 22.578125 -30.75 20.640625 -28.84375 Z M 20.640625 -28.84375 "/></g></g></g></svg>